D:\school\WTK\thesis\model\3dpredictsim\Results\batch_windlass\Pog_s1_tmt_bCst_d05_k1000_WL20_ig24_pas_GRF.mot
nRows=20
nColumns=19

name D:\school\WTK\thesis\model\3dpredictsim\Results\batch_windlass\Pog_s1_tmt_bCst_d05_k1000_WL20_ig24_pas_GRF.mot
datacolumns 19
datarows 20
range 0.5355186000 0.7390156679
endheader
time 	ground_force_vx	ground_force_vy	ground_force_vz	ground_force_px	ground_force_py	ground_force_pz	1_ground_force_vx	1_ground_force_vy	1_ground_force_vz	1_ground_force_px	1_ground_force_py	1_ground_force_pz	ground_torque_x	ground_torque_y	ground_torque_z	1_ground_torque_x	1_ground_torque_y	1_ground_torque_z
        0.5355186000	      107.3451373067	      529.5294525653	        0.8717781257	        0.3522246603	        0.0000000000	        0.0367790048	      -58.6992080812	       39.7135222706	      -14.5801129794	        0.8092470247	        0.0000000000	       -0.0444676143	        0.0000000000	        0.0000000000	        0.0000000000	        0.0000000000	        0.0000000000	        0.0000000000	
        0.5462289720	       90.1779674417	      448.8622309232	        3.6853769713	        0.3557541561	        0.0000000000	        0.0356467340	      -95.3837586720	       77.5516600802	      -30.6787416023	        0.8225323683	        0.0000000000	       -0.0416631796	        0.0000000000	        0.0000000000	        0.0000000000	        0.0000000000	        0.0000000000	        0.0000000000	
        0.5569393440	       68.0696351497	      365.2448648228	       10.0200701482	        0.3606849481	        0.0000000000	        0.0338333614	     -141.8344050238	      157.1323541767	      -70.7630589469	        0.8328962801	        0.0000000000	       -0.0405746018	        0.0000000000	        0.0000000000	        0.0000000000	        0.0000000000	        0.0000000000	        0.0000000000	
        0.5676497160	       39.8216281578	      267.2276995009	       12.5009680510	        0.3690581340	        0.0000000000	        0.0300811287	      -65.0322874275	      348.2556864762	      -29.4155485207	        0.8466863525	        0.0000000000	       -0.0413589170	        0.0000000000	        0.0000000000	        0.0000000000	        0.0000000000	        0.0000000000	        0.0000000000	
        0.5783600880	       17.1222819149	      179.0704041802	       11.2942503376	        0.3824709618	        0.0000000000	        0.0230286324	      -63.3942175866	      572.7230424857	        2.0783908792	        0.8544745087	        0.0000000000	       -0.0427257827	        0.0000000000	        0.0000000000	        0.0000000000	        0.0000000000	        0.0000000000	        0.0000000000	
        0.5890704600	        2.8317879820	      144.3368942184	       11.6238063295	        0.3861127985	        0.0000000000	        0.0207191124	      -87.2883192132	      752.3895076778	       11.4197138912	        0.8615599882	        0.0000000000	       -0.0433282824	        0.0000000000	        0.0000000000	        0.0000000000	        0.0000000000	        0.0000000000	        0.0000000000	
        0.5997808320	       -1.4340403209	      109.3038017390	       11.6634719123	        0.3864187014	        0.0000000000	        0.0207902701	     -114.9827960884	      864.1169151866	       13.2079682430	        0.8697833986	        0.0000000000	       -0.0432398524	        0.0000000000	        0.0000000000	        0.0000000000	        0.0000000000	        0.0000000000	        0.0000000000	
        0.6104912040	       -9.6950529936	       68.0212193729	       10.4860236786	        0.3862646022	        0.0000000000	        0.0208852457	     -120.4778734482	      903.6459848119	       13.0833007756	        0.8776208776	        0.0000000000	       -0.0426323357	        0.0000000000	        0.0000000000	        0.0000000000	        0.0000000000	        0.0000000000	        0.0000000000	
        0.6212015760	       -9.5904386700	       22.6655183779	        4.3900684885	        0.3859831543	        0.0000000000	        0.0206657966	     -112.5483197024	      878.8677636674	       11.4769398655	        0.8821619686	        0.0000000000	       -0.0421325646	        0.0000000000	        0.0000000000	        0.0000000000	        0.0000000000	        0.0000000000	        0.0000000000	
        0.6319119480	        0.1300500419	       -0.1279973836	       -0.0044796460	        0.0000000000	        0.0000000000	        0.0000000000	      -97.4490345638	      833.4658412583	       11.8819841911	        0.8853272472	        0.0000000000	       -0.0417447717	        0.0000000000	        0.0000000000	        0.0000000000	        0.0000000000	        0.0000000000	        0.0000000000	
        0.6426223200	        0.0004336015	       -0.0003518618	        0.0000159005	        0.0000000000	        0.0000000000	        0.0000000000	      -83.0478186208	      786.0614783437	       13.1901445980	        0.8882439668	        0.0000000000	       -0.0414673808	        0.0000000000	        0.0000000000	        0.0000000000	        0.0000000000	        0.0000000000	        0.0000000000	
        0.6533326920	        0.0001354651	       -0.0000952049	        0.0000078023	        0.0000000000	        0.0000000000	        0.0000000000	      -70.0275681004	      743.2168710904	       13.9627268321	        0.8911155592	        0.0000000000	       -0.0413091681	        0.0000000000	        0.0000000000	        0.0000000000	        0.0000000000	        0.0000000000	        0.0000000000	
        0.6640430639	        0.0006534606	       -0.0004118619	        0.0000444042	        0.0000000000	        0.0000000000	        0.0000000000	      -58.4294120137	      705.8226891735	       15.0190970764	        0.8941430572	        0.0000000000	       -0.0412384960	        0.0000000000	        0.0000000000	        0.0000000000	        0.0000000000	        0.0000000000	        0.0000000000	
        0.6747534359	        0.0083588339	       -0.0048405232	        0.0006238090	        0.0000000000	        0.0000000000	        0.0000000000	      -48.4040781075	      673.9293791921	       15.8203530067	        0.8974999565	        0.0000000000	       -0.0412373074	        0.0000000000	        0.0000000000	        0.0000000000	        0.0000000000	        0.0000000000	        0.0000000000	
        0.6854638079	       -0.0364042221	        0.0196953450	       -0.0028947663	        0.0000000000	        0.0000000000	        0.0000000000	      -39.5340884979	      648.2840461420	       17.1453547259	        0.9017801580	        0.0000000000	       -0.0412640303	        0.0000000000	        0.0000000000	        0.0000000000	        0.0000000000	        0.0000000000	        0.0000000000	
        0.6961741799	       -0.0291946110	        0.0149178231	       -0.0024455897	        0.0000000000	        0.0000000000	        0.0000000000	      -33.1450365410	      628.3492597483	       18.4015854158	        0.9069097237	        0.0000000000	       -0.0412830761	        0.0000000000	        0.0000000000	        0.0000000000	        0.0000000000	        0.0000000000	        0.0000000000	
        0.7068845519	       -0.0190331490	        0.0092536522	       -0.0016655371	        0.0000000000	        0.0000000000	        0.0000000000	      -28.6930401739	      613.2310305142	       19.1084164724	        0.9123703893	        0.0000000000	       -0.0412882602	        0.0000000000	        0.0000000000	        0.0000000000	        0.0000000000	        0.0000000000	        0.0000000000	
        0.7175949239	       -0.0148769155	        0.0069249776	       -0.0013445521	        0.0000000000	        0.0000000000	        0.0000000000	      -24.8949087379	      602.3018893167	       19.6328386833	        0.9180798886	        0.0000000000	       -0.0412727978	        0.0000000000	        0.0000000000	        0.0000000000	        0.0000000000	        0.0000000000	        0.0000000000	
        0.7283052959	       -0.0150211347	        0.0067295460	       -0.0013846693	        0.0000000000	        0.0000000000	        0.0000000000	      -21.9676665269	      594.3431991548	       19.6656828823	        0.9239005704	        0.0000000000	       -0.0412353765	        0.0000000000	        0.0000000000	        0.0000000000	        0.0000000000	        0.0000000000	        0.0000000000	
        0.7390156679	       -0.0194214902	        0.0084106319	       -0.0018045658	        0.0000000000	        0.0000000000	        0.0000000000	      -19.7625331261	      588.5668282283	       19.2795243508	        0.9296196849	        0.0000000000	       -0.0411814382	        0.0000000000	        0.0000000000	        0.0000000000	        0.0000000000	        0.0000000000	        0.0000000000	
